{
  "accessors": [
    {
      "bufferView": 2,
      "componentType": 5126,
      "count": 344,
      "max": [
        -1434.8896484375,
        441.50421142578125,
        -269.32232666015625
      ],
      "min": [
        -2153.67724609375,
        -5.764547824859619,
        -988.1097412109375
      ],
      "type": "VEC3"
    },
    {
      "bufferView": 2,
      "byteOffset": 4128,
      "componentType": 5126,
      "count": 344,
      "max": [
        0.9998106360435486,
        1.0,
        1.0
      ],
      "min": [
        -0.9998106360435486,
        -2.745604797382839e-05,
        -0.9998106360435486
      ],
      "type": "VEC3"
    },
    {
      "bufferView": 3,
      "componentType": 5126,
      "count": 344,
      "max": [
        0.7373111844062805,
        0.9999428391456604,
        0.8914030194282532,
        1.0
      ],
      "min": [
        -0.3857620656490326,
        -0.9939020276069641,
        -0.1320677548646927,
        1.0
      ],
      "type": "VEC4"
    },
    {
      "bufferView": 1,
      "componentType": 5126,
      "count": 344,
      "max": [
        0.784720778465271,
        0.6575499773025513
      ],
      "min": [
        0.02720034122467041,
        0.050628662109375
      ],
      "type": "VEC2"
    },
    {
      "bufferView": 0,
      "componentType": 5125,
      "count": 828,
      "type": "SCALAR"
    },
    {
      "bufferView": 2,
      "byteOffset": 8256,
      "componentType": 5126,
      "count": 522,
      "max": [
        -1606.7899169921875,
        602.9481811523438,
        -167.0279541015625
      ],
      "min": [
        -1981.77685546875,
        441.50421142578125,
        -816.20947265625
      ],
      "type": "VEC3"
    },
    {
      "bufferView": 2,
      "byteOffset": 14520,
      "componentType": 5126,
      "count": 522,
      "max": [
        0.9998107552528381,
        1.0,
        0.9998108744621277
      ],
      "min": [
        -0.9998107552528381,
        -1.0,
        -0.9998109340667725
      ],
      "type": "VEC3"
    },
    {
      "bufferView": 3,
      "byteOffset": 5504,
      "componentType": 5126,
      "count": 522,
      "max": [
        0.9998105764389038,
        1.0,
        0.9960948824882507,
        1.0
      ],
      "min": [
        -0.9999861717224121,
        -0.9998903274536133,
        -0.9960911273956299,
        1.0
      ],
      "type": "VEC4"
    },
    {
      "bufferView": 1,
      "byteOffset": 2752,
      "componentType": 5126,
      "count": 522,
      "max": [
        0.9707816243171692,
        0.9829130172729492
      ],
      "min": [
        0.035750389099121094,
        0.05769091844558716
      ],
      "type": "VEC2"
    },
    {
      "bufferView": 0,
      "byteOffset": 3312,
      "componentType": 5125,
      "count": 1284,
      "type": "SCALAR"
    },
    {
      "bufferView": 4,
      "componentType": 5126,
      "count": 877,
      "max": [
        29.16666603088379
      ],
      "min": [
        0.0416666679084301
      ],
      "type": "SCALAR"
    },
    {
      "bufferView": 5,
      "componentType": 5126,
      "count": 877,
      "max": [
        105.79842376708984,
        0.0,
        943.4420776367188
      ],
      "min": [
        -722.035888671875,
        0.0,
        -1174.9486083984375
      ],
      "type": "VEC3"
    },
    {
      "bufferView": 4,
      "byteOffset": 3508,
      "componentType": 5126,
      "count": 2,
      "max": [
        29.16666603088379
      ],
      "min": [
        0.0416666679084301
      ],
      "type": "SCALAR"
    },
    {
      "bufferView": 5,
      "byteOffset": 10524,
      "componentType": 5126,
      "count": 2,
      "max": [
        1.0,
        1.0,
        1.0
      ],
      "min": [
        1.0,
        1.0,
        1.0
      ],
      "type": "VEC3"
    },
    {
      "bufferView": 4,
      "byteOffset": 3516,
      "componentType": 5126,
      "count": 877,
      "max": [
        29.16666603088379
      ],
      "min": [
        0.0416666679084301
      ],
      "type": "SCALAR"
    },
    {
      "bufferView": 6,
      "componentType": 5126,
      "count": 877,
      "max": [
        0.0,
        0.30925101041793823,
        0.0,
        1.0
      ],
      "min": [
        0.0,
        -0.31262636184692383,
        0.0,
        0.9498761892318726
      ],
      "type": "VEC4"
    }
  ],
  "animations": [
    {
      "channels": [
        {
          "sampler": 0,
          "target": {
            "node": 7,
            "path": "translation"
          }
        },
        {
          "sampler": 1,
          "target": {
            "node": 7,
            "path": "scale"
          }
        },
        {
          "sampler": 2,
          "target": {
            "node": 7,
            "path": "rotation"
          }
        }
      ],
      "name": "Take 001",
      "samplers": [
        {
          "input": 10,
          "interpolation": "LINEAR",
          "output": 11
        },
        {
          "input": 12,
          "interpolation": "LINEAR",
          "output": 13
        },
        {
          "input": 14,
          "interpolation": "LINEAR",
          "output": 15
        }
      ]
    }
  ],
  "asset": {
    "extras": {
      "author": "tylerlherring (https://sketchfab.com/tylerlherring)",
      "license": "CC-BY-4.0 (http://creativecommons.org/licenses/by/4.0/)",
      "source": "https://sketchfab.com/3d-models/cannon-tower-06241ec1b6e3480eb88819369ceb3d11",
      "title": "Cannon Tower"
    },
    "generator": "Sketchfab-12.64.0",
    "version": "2.0"
  },
  "bufferViews": [
    {
      "buffer": 0,
      "byteLength": 8448,
      "name": "floatBufferViews",
      "target": 34963
    },
    {
      "buffer": 0,
      "byteLength": 6928,
      "byteOffset": 8448,
      "byteStride": 8,
      "name": "floatBufferViews",
      "target": 34962
    },
    {
      "buffer": 0,
      "byteLength": 20784,
      "byteOffset": 15376,
      "byteStride": 12,
      "name": "floatBufferViews",
      "target": 34962
    },
    {
      "buffer": 0,
      "byteLength": 13856,
      "byteOffset": 36160,
      "byteStride": 16,
      "name": "floatBufferViews",
      "target": 34962
    },
    {
      "buffer": 0,
      "byteLength": 7024,
      "byteOffset": 50016,
      "name": "floatBufferViews"
    },
    {
      "buffer": 0,
      "byteLength": 10548,
      "byteOffset": 57040,
      "byteStride": 12,
      "name": "floatBufferViews"
    },
    {
      "buffer": 0,
      "byteLength": 14032,
      "byteOffset": 67588,
      "byteStride": 16,
      "name": "floatBufferViews"
    }
  ],
  "buffers": [
    {
      "byteLength": 81620,
      "uri": "scene.bin"
    }
  ],
  "images": [
    {
      "uri": "textures/lambert49_baseColor.png"
    },
    {
      "uri": "textures/lambert49_metallicRoughness.png"
    },
    {
      "uri": "textures/lambert49_normal.png"
    }
  ],
  "materials": [
    {
      "doubleSided": true,
      "name": "lambert49",
      "normalTexture": {
        "index": 2,
        "scale": 0.55
      },
      "occlusionTexture": {
        "index": 1
      },
      "pbrMetallicRoughness": {
        "baseColorTexture": {
          "index": 0
        },
        "metallicRoughnessTexture": {
          "index": 1
        }
      }
    }
  ],
  "meshes": [
    {
      "name": "tower2_lambert49_0",
      "primitives": [
        {
          "attributes": {
            "NORMAL": 1,
            "POSITION": 0,
            "TANGENT": 2,
            "TEXCOORD_0": 3
          },
          "indices": 4,
          "material": 0,
          "mode": 4
        }
      ]
    },
    {
      "name": "turret_lambert49_0",
      "primitives": [
        {
          "attributes": {
            "NORMAL": 6,
            "POSITION": 5,
            "TANGENT": 7,
            "TEXCOORD_0": 8
          },
          "indices": 9,
          "material": 0,
          "mode": 4
        }
      ]
    }
  ],
  "nodes": [
    {
      "children": [
        1
      ],
      "matrix": [
        0.007307873107492924,
        0.0,
        0.0,
        0.0,
        0.0,
        1.6226737969955271e-18,
        -0.007307873107492924,
        0.0,
        0.0,
        0.007307873107492924,
        1.6226737969955271e-18,
        0.0,
        0.0,
        0.0,
        0.0,
        1.0
      ],
      "name": "Sketchfab_model"
    },
    {
      "children": [
        2
      ],
      "matrix": [
        1.0,
        0.0,
        0.0,
        0.0,
        0.0,
        0.0,
        1.0,
        0.0,
        0.0,
        -1.0,
        0.0,
        0.0,
        0.0,
        0.0,
        0.0,
        1.0
      ],
      "name": "7debac0a8cfc49f3b0a1991d58a0556c.fbx"
    },
    {
      "children": [
        3
      ],
      "name": "Object_2"
    },
    {
      "children": [
        4
      ],
      "name": "RootNode"
    },
    {
      "children": [
        5,
        7
      ],
      "name": "tower_lo"
    },
    {
      "children": [
        6
      ],
      "name": "tower2"
    },
    {
      "mesh": 0,
      "name": "tower2_lambert49_0"
    },
    {
      "children": [
        8
      ],
      "name": "turret"
    },
    {
      "mesh": 1,
      "name": "turret_lambert49_0"
    }
  ],
  "samplers": [
    {
      "magFilter": 9729,
      "minFilter": 9987,
      "wrapS": 10497,
      "wrapT": 10497
    }
  ],
  "scene": 0,
  "scenes": [
    {
      "name": "Sketchfab_Scene",
      "nodes": [
        0
      ]
    }
  ],
  "textures": [
    {
      "sampler": 0,
      "source": 0
    },
    {
      "sampler": 0,
      "source": 1
    },
    {
      "sampler": 0,
      "source": 2
    }
  ]
}
